<mxfile host="app.diagrams.net" agent="Mozilla/5.0 (Windows NT 10.0; Win64; x64) AppleWebKit/537.36 (KHTML, like Gecko) Chrome/135.0.0.0 Safari/537.36" version="28.1.0">
  <diagram id="dDCIE52aHbwn1ZXGlIGa" name="ER">
    <mxGraphModel dx="1744" dy="878" grid="1" gridSize="10" guides="1" tooltips="1" connect="1" arrows="1" fold="1" page="1" pageScale="1" pageWidth="850" pageHeight="1100" math="0" shadow="0">
      <root>
        <mxCell id="0" />
        <mxCell id="1" parent="0" />
        <mxCell id="m79Oxo2R7m8tHtwxaWUQ-1" value="Users" style="rounded=1;whiteSpace=wrap;html=1;" parent="1" vertex="1">
          <mxGeometry x="500" y="668" width="120" height="60" as="geometry" />
        </mxCell>
        <mxCell id="m79Oxo2R7m8tHtwxaWUQ-2" value="UserName" style="ellipse;whiteSpace=wrap;html=1;" parent="1" vertex="1">
          <mxGeometry x="560" y="768" width="80" height="60" as="geometry" />
        </mxCell>
        <mxCell id="m79Oxo2R7m8tHtwxaWUQ-3" value="UserEmail" style="ellipse;whiteSpace=wrap;html=1;" parent="1" vertex="1">
          <mxGeometry x="440" y="768" width="80" height="60" as="geometry" />
        </mxCell>
        <mxCell id="m79Oxo2R7m8tHtwxaWUQ-4" value="" style="endArrow=none;html=1;rounded=0;entryX=0;entryY=1;entryDx=0;entryDy=0;exitX=0.5;exitY=0;exitDx=0;exitDy=0;" parent="1" source="m79Oxo2R7m8tHtwxaWUQ-3" target="m79Oxo2R7m8tHtwxaWUQ-1" edge="1">
          <mxGeometry width="50" height="50" relative="1" as="geometry">
            <mxPoint x="390" y="788" as="sourcePoint" />
            <mxPoint x="440" y="738" as="targetPoint" />
          </mxGeometry>
        </mxCell>
        <mxCell id="m79Oxo2R7m8tHtwxaWUQ-5" value="" style="endArrow=none;html=1;rounded=0;entryX=0.75;entryY=1;entryDx=0;entryDy=0;exitX=0.5;exitY=0;exitDx=0;exitDy=0;" parent="1" source="m79Oxo2R7m8tHtwxaWUQ-2" target="m79Oxo2R7m8tHtwxaWUQ-1" edge="1">
          <mxGeometry width="50" height="50" relative="1" as="geometry">
            <mxPoint x="510" y="778" as="sourcePoint" />
            <mxPoint x="520" y="738" as="targetPoint" />
          </mxGeometry>
        </mxCell>
        <mxCell id="m79Oxo2R7m8tHtwxaWUQ-6" value="&lt;u&gt;UserID&lt;/u&gt;" style="ellipse;whiteSpace=wrap;html=1;" parent="1" vertex="1">
          <mxGeometry x="360" y="687" width="80" height="60" as="geometry" />
        </mxCell>
        <mxCell id="m79Oxo2R7m8tHtwxaWUQ-7" value="" style="endArrow=none;html=1;rounded=0;entryX=0;entryY=0.5;entryDx=0;entryDy=0;exitX=0.5;exitY=0;exitDx=0;exitDy=0;" parent="1" target="m79Oxo2R7m8tHtwxaWUQ-1" edge="1">
          <mxGeometry width="50" height="50" relative="1" as="geometry">
            <mxPoint x="440" y="718" as="sourcePoint" />
            <mxPoint x="460" y="678" as="targetPoint" />
          </mxGeometry>
        </mxCell>
        <mxCell id="m79Oxo2R7m8tHtwxaWUQ-8" value="Incidents" style="rounded=1;whiteSpace=wrap;html=1;" parent="1" vertex="1">
          <mxGeometry x="905" y="660" width="120" height="60" as="geometry" />
        </mxCell>
        <mxCell id="m79Oxo2R7m8tHtwxaWUQ-9" value="&lt;u&gt;IncidentID&lt;/u&gt;" style="ellipse;whiteSpace=wrap;html=1;" parent="1" vertex="1">
          <mxGeometry x="945" y="780" width="80" height="60" as="geometry" />
        </mxCell>
        <mxCell id="m79Oxo2R7m8tHtwxaWUQ-10" value="UserID (FK)" style="ellipse;whiteSpace=wrap;html=1;" parent="1" vertex="1">
          <mxGeometry x="1045" y="740" width="80" height="60" as="geometry" />
        </mxCell>
        <mxCell id="m79Oxo2R7m8tHtwxaWUQ-11" value="" style="endArrow=none;html=1;rounded=0;entryX=0.5;entryY=1;entryDx=0;entryDy=0;exitX=0.5;exitY=0;exitDx=0;exitDy=0;" parent="1" source="m79Oxo2R7m8tHtwxaWUQ-9" target="m79Oxo2R7m8tHtwxaWUQ-8" edge="1">
          <mxGeometry width="50" height="50" relative="1" as="geometry">
            <mxPoint x="865" y="740" as="sourcePoint" />
            <mxPoint x="925" y="720" as="targetPoint" />
          </mxGeometry>
        </mxCell>
        <mxCell id="m79Oxo2R7m8tHtwxaWUQ-12" value="" style="endArrow=none;html=1;rounded=0;entryX=1;entryY=1;entryDx=0;entryDy=0;exitX=0;exitY=0;exitDx=0;exitDy=0;" parent="1" source="m79Oxo2R7m8tHtwxaWUQ-10" target="m79Oxo2R7m8tHtwxaWUQ-8" edge="1">
          <mxGeometry width="50" height="50" relative="1" as="geometry">
            <mxPoint x="965" y="780" as="sourcePoint" />
            <mxPoint x="995" y="720" as="targetPoint" />
          </mxGeometry>
        </mxCell>
        <mxCell id="m79Oxo2R7m8tHtwxaWUQ-13" value="Create Incident" style="rhombus;whiteSpace=wrap;html=1;" parent="1" vertex="1">
          <mxGeometry x="703" y="650" width="145" height="80" as="geometry" />
        </mxCell>
        <mxCell id="m79Oxo2R7m8tHtwxaWUQ-14" value="" style="endArrow=none;html=1;rounded=0;entryX=0.983;entryY=0.383;entryDx=0;entryDy=0;exitX=0;exitY=0.5;exitDx=0;exitDy=0;entryPerimeter=0;" parent="1" source="m79Oxo2R7m8tHtwxaWUQ-13" target="m79Oxo2R7m8tHtwxaWUQ-1" edge="1">
          <mxGeometry width="50" height="50" relative="1" as="geometry">
            <mxPoint x="645" y="750" as="sourcePoint" />
            <mxPoint x="635" y="710" as="targetPoint" />
          </mxGeometry>
        </mxCell>
        <mxCell id="m79Oxo2R7m8tHtwxaWUQ-15" value="1" style="edgeLabel;html=1;align=center;verticalAlign=middle;resizable=0;points=[];" parent="m79Oxo2R7m8tHtwxaWUQ-14" vertex="1" connectable="0">
          <mxGeometry x="0.5738" y="3" relative="1" as="geometry">
            <mxPoint x="-3" y="-15" as="offset" />
          </mxGeometry>
        </mxCell>
        <mxCell id="m79Oxo2R7m8tHtwxaWUQ-16" value="" style="endArrow=none;html=1;rounded=0;entryX=1;entryY=0.5;entryDx=0;entryDy=0;exitX=0;exitY=0.5;exitDx=0;exitDy=0;" parent="1" source="m79Oxo2R7m8tHtwxaWUQ-8" target="m79Oxo2R7m8tHtwxaWUQ-13" edge="1">
          <mxGeometry width="50" height="50" relative="1" as="geometry">
            <mxPoint x="835" y="730" as="sourcePoint" />
            <mxPoint x="825" y="690" as="targetPoint" />
          </mxGeometry>
        </mxCell>
        <mxCell id="m79Oxo2R7m8tHtwxaWUQ-17" value="M" style="text;html=1;align=center;verticalAlign=middle;resizable=0;points=[];autosize=1;strokeColor=none;fillColor=none;" parent="1" vertex="1">
          <mxGeometry x="875" y="666" width="30" height="30" as="geometry" />
        </mxCell>
        <mxCell id="m79Oxo2R7m8tHtwxaWUQ-18" value="Title" style="ellipse;whiteSpace=wrap;html=1;" parent="1" vertex="1">
          <mxGeometry x="1075" y="651" width="80" height="60" as="geometry" />
        </mxCell>
        <mxCell id="m79Oxo2R7m8tHtwxaWUQ-19" value="Category" style="ellipse;whiteSpace=wrap;html=1;" parent="1" vertex="1">
          <mxGeometry x="1035" y="570" width="80" height="60" as="geometry" />
        </mxCell>
        <mxCell id="m79Oxo2R7m8tHtwxaWUQ-20" value="SecurityLevel" style="ellipse;whiteSpace=wrap;html=1;" parent="1" vertex="1">
          <mxGeometry x="825" y="770" width="90" height="60" as="geometry" />
        </mxCell>
        <mxCell id="m79Oxo2R7m8tHtwxaWUQ-21" value="Description" style="ellipse;whiteSpace=wrap;html=1;" parent="1" vertex="1">
          <mxGeometry x="825" y="565" width="80" height="60" as="geometry" />
        </mxCell>
        <mxCell id="m79Oxo2R7m8tHtwxaWUQ-22" value="" style="endArrow=none;html=1;rounded=0;entryX=0;entryY=1;entryDx=0;entryDy=0;exitX=0.5;exitY=0;exitDx=0;exitDy=0;" parent="1" source="m79Oxo2R7m8tHtwxaWUQ-20" target="m79Oxo2R7m8tHtwxaWUQ-8" edge="1">
          <mxGeometry width="50" height="50" relative="1" as="geometry">
            <mxPoint x="975" y="830" as="sourcePoint" />
            <mxPoint x="955" y="770" as="targetPoint" />
          </mxGeometry>
        </mxCell>
        <mxCell id="m79Oxo2R7m8tHtwxaWUQ-23" value="" style="endArrow=none;html=1;rounded=0;entryX=0.5;entryY=1;entryDx=0;entryDy=0;exitX=0;exitY=0;exitDx=0;exitDy=0;" parent="1" source="m79Oxo2R7m8tHtwxaWUQ-8" target="m79Oxo2R7m8tHtwxaWUQ-21" edge="1">
          <mxGeometry width="50" height="50" relative="1" as="geometry">
            <mxPoint x="1035" y="610" as="sourcePoint" />
            <mxPoint x="1015" y="550" as="targetPoint" />
          </mxGeometry>
        </mxCell>
        <mxCell id="m79Oxo2R7m8tHtwxaWUQ-24" value="" style="endArrow=none;html=1;rounded=0;entryX=0;entryY=1;entryDx=0;entryDy=0;exitX=1;exitY=0;exitDx=0;exitDy=0;" parent="1" source="m79Oxo2R7m8tHtwxaWUQ-8" target="m79Oxo2R7m8tHtwxaWUQ-19" edge="1">
          <mxGeometry width="50" height="50" relative="1" as="geometry">
            <mxPoint x="1045" y="670" as="sourcePoint" />
            <mxPoint x="1025" y="610" as="targetPoint" />
          </mxGeometry>
        </mxCell>
        <mxCell id="m79Oxo2R7m8tHtwxaWUQ-25" value="" style="endArrow=none;html=1;rounded=0;entryX=1;entryY=0.5;entryDx=0;entryDy=0;exitX=0;exitY=0.5;exitDx=0;exitDy=0;" parent="1" source="m79Oxo2R7m8tHtwxaWUQ-18" target="m79Oxo2R7m8tHtwxaWUQ-8" edge="1">
          <mxGeometry width="50" height="50" relative="1" as="geometry">
            <mxPoint x="1045" y="780" as="sourcePoint" />
            <mxPoint x="1025" y="720" as="targetPoint" />
          </mxGeometry>
        </mxCell>
        <mxCell id="m79Oxo2R7m8tHtwxaWUQ-26" value="Reports" style="rounded=1;whiteSpace=wrap;html=1;" parent="1" vertex="1">
          <mxGeometry x="700" y="427" width="120" height="60" as="geometry" />
        </mxCell>
        <mxCell id="m79Oxo2R7m8tHtwxaWUQ-27" value="&lt;u&gt;ReportID&lt;/u&gt;" style="ellipse;whiteSpace=wrap;html=1;" parent="1" vertex="1">
          <mxGeometry x="560" y="460" width="80" height="60" as="geometry" />
        </mxCell>
        <mxCell id="m79Oxo2R7m8tHtwxaWUQ-28" value="IncidentID (FK)" style="ellipse;whiteSpace=wrap;html=1;" parent="1" vertex="1">
          <mxGeometry x="545" y="390" width="80" height="60" as="geometry" />
        </mxCell>
        <mxCell id="m79Oxo2R7m8tHtwxaWUQ-29" value="Status" style="ellipse;whiteSpace=wrap;html=1;" parent="1" vertex="1">
          <mxGeometry x="595" y="320" width="80" height="60" as="geometry" />
        </mxCell>
        <mxCell id="m79Oxo2R7m8tHtwxaWUQ-30" value="" style="endArrow=none;html=1;rounded=0;entryX=0;entryY=0.5;entryDx=0;entryDy=0;exitX=0.976;exitY=0.326;exitDx=0;exitDy=0;exitPerimeter=0;" parent="1" source="m79Oxo2R7m8tHtwxaWUQ-27" target="m79Oxo2R7m8tHtwxaWUQ-26" edge="1">
          <mxGeometry width="50" height="50" relative="1" as="geometry">
            <mxPoint x="670" y="492" as="sourcePoint" />
            <mxPoint x="690" y="452" as="targetPoint" />
          </mxGeometry>
        </mxCell>
        <mxCell id="m79Oxo2R7m8tHtwxaWUQ-31" value="" style="endArrow=none;html=1;rounded=0;entryX=0;entryY=0.25;entryDx=0;entryDy=0;exitX=1;exitY=0.5;exitDx=0;exitDy=0;" parent="1" source="m79Oxo2R7m8tHtwxaWUQ-28" target="m79Oxo2R7m8tHtwxaWUQ-26" edge="1">
          <mxGeometry width="50" height="50" relative="1" as="geometry">
            <mxPoint x="670" y="492" as="sourcePoint" />
            <mxPoint x="690" y="452" as="targetPoint" />
          </mxGeometry>
        </mxCell>
        <mxCell id="m79Oxo2R7m8tHtwxaWUQ-32" value="" style="endArrow=none;html=1;rounded=0;entryX=1;entryY=1;entryDx=0;entryDy=0;exitX=0.25;exitY=0;exitDx=0;exitDy=0;" parent="1" source="m79Oxo2R7m8tHtwxaWUQ-26" target="m79Oxo2R7m8tHtwxaWUQ-29" edge="1">
          <mxGeometry width="50" height="50" relative="1" as="geometry">
            <mxPoint x="720" y="432" as="sourcePoint" />
            <mxPoint x="740" y="392" as="targetPoint" />
          </mxGeometry>
        </mxCell>
        <mxCell id="m79Oxo2R7m8tHtwxaWUQ-33" value="" style="endArrow=none;html=1;rounded=0;entryX=0.5;entryY=1;entryDx=0;entryDy=0;exitX=0.417;exitY=0.037;exitDx=0;exitDy=0;exitPerimeter=0;" parent="1" source="m79Oxo2R7m8tHtwxaWUQ-8" target="m79Oxo2R7m8tHtwxaWUQ-49" edge="1">
          <mxGeometry width="50" height="50" relative="1" as="geometry">
            <mxPoint x="955" y="635" as="sourcePoint" />
            <mxPoint x="955" y="550" as="targetPoint" />
          </mxGeometry>
        </mxCell>
        <mxCell id="m79Oxo2R7m8tHtwxaWUQ-34" value="Investigators" style="rounded=1;whiteSpace=wrap;html=1;" parent="1" vertex="1">
          <mxGeometry x="705.5" y="170" width="120" height="60" as="geometry" />
        </mxCell>
        <mxCell id="m79Oxo2R7m8tHtwxaWUQ-35" value="&lt;u&gt;InvestigatorID&lt;/u&gt;" style="ellipse;whiteSpace=wrap;html=1;" parent="1" vertex="1">
          <mxGeometry x="595" y="85" width="95" height="70" as="geometry" />
        </mxCell>
        <mxCell id="m79Oxo2R7m8tHtwxaWUQ-36" value="Name" style="ellipse;whiteSpace=wrap;html=1;" parent="1" vertex="1">
          <mxGeometry x="725.5" y="70" width="95" height="60" as="geometry" />
        </mxCell>
        <mxCell id="m79Oxo2R7m8tHtwxaWUQ-37" value="" style="endArrow=none;html=1;rounded=0;entryX=0.5;entryY=1;entryDx=0;entryDy=0;exitX=0.5;exitY=0;exitDx=0;exitDy=0;" parent="1" source="m79Oxo2R7m8tHtwxaWUQ-34" target="m79Oxo2R7m8tHtwxaWUQ-36" edge="1">
          <mxGeometry width="50" height="50" relative="1" as="geometry">
            <mxPoint x="972.5" y="384" as="sourcePoint" />
            <mxPoint x="950.5" y="340" as="targetPoint" />
          </mxGeometry>
        </mxCell>
        <mxCell id="m79Oxo2R7m8tHtwxaWUQ-38" value="" style="endArrow=none;html=1;rounded=0;entryX=1;entryY=1;entryDx=0;entryDy=0;exitX=0;exitY=0;exitDx=0;exitDy=0;" parent="1" source="m79Oxo2R7m8tHtwxaWUQ-34" target="m79Oxo2R7m8tHtwxaWUQ-35" edge="1">
          <mxGeometry width="50" height="50" relative="1" as="geometry">
            <mxPoint x="863.5" y="394" as="sourcePoint" />
            <mxPoint x="841.5" y="350" as="targetPoint" />
          </mxGeometry>
        </mxCell>
        <mxCell id="m79Oxo2R7m8tHtwxaWUQ-39" value="CaseCount" style="ellipse;whiteSpace=wrap;html=1;" parent="1" vertex="1">
          <mxGeometry x="845.5" y="90" width="95" height="60" as="geometry" />
        </mxCell>
        <mxCell id="m79Oxo2R7m8tHtwxaWUQ-40" value="" style="endArrow=none;html=1;rounded=0;entryX=0;entryY=1;entryDx=0;entryDy=0;exitX=1;exitY=0;exitDx=0;exitDy=0;" parent="1" source="m79Oxo2R7m8tHtwxaWUQ-34" target="m79Oxo2R7m8tHtwxaWUQ-39" edge="1">
          <mxGeometry width="50" height="50" relative="1" as="geometry">
            <mxPoint x="940.5" y="400" as="sourcePoint" />
            <mxPoint x="948.5" y="360" as="targetPoint" />
          </mxGeometry>
        </mxCell>
        <mxCell id="m79Oxo2R7m8tHtwxaWUQ-41" value="InvestigatorID (FK)" style="ellipse;whiteSpace=wrap;html=1;" parent="1" vertex="1">
          <mxGeometry x="712.5" y="520" width="95" height="70" as="geometry" />
        </mxCell>
        <mxCell id="m79Oxo2R7m8tHtwxaWUQ-42" value="" style="endArrow=none;html=1;rounded=0;entryX=0.5;entryY=0;entryDx=0;entryDy=0;exitX=0.5;exitY=1;exitDx=0;exitDy=0;" parent="1" source="m79Oxo2R7m8tHtwxaWUQ-26" target="m79Oxo2R7m8tHtwxaWUQ-41" edge="1">
          <mxGeometry width="50" height="50" relative="1" as="geometry">
            <mxPoint x="784" y="437" as="sourcePoint" />
            <mxPoint x="770" y="397" as="targetPoint" />
          </mxGeometry>
        </mxCell>
        <mxCell id="m79Oxo2R7m8tHtwxaWUQ-43" value="1" style="text;html=1;align=center;verticalAlign=middle;resizable=0;points=[];autosize=1;strokeColor=none;fillColor=none;" parent="1" vertex="1">
          <mxGeometry x="955" y="630" width="30" height="30" as="geometry" />
        </mxCell>
        <mxCell id="m79Oxo2R7m8tHtwxaWUQ-44" value="Review" style="ellipse;whiteSpace=wrap;html=1;" parent="1" vertex="1">
          <mxGeometry x="830" y="352" width="80" height="60" as="geometry" />
        </mxCell>
        <mxCell id="m79Oxo2R7m8tHtwxaWUQ-45" value="" style="endArrow=none;html=1;rounded=0;entryX=0;entryY=1;entryDx=0;entryDy=0;exitX=1;exitY=0;exitDx=0;exitDy=0;" parent="1" source="m79Oxo2R7m8tHtwxaWUQ-26" target="m79Oxo2R7m8tHtwxaWUQ-44" edge="1">
          <mxGeometry width="50" height="50" relative="1" as="geometry">
            <mxPoint x="736" y="454" as="sourcePoint" />
            <mxPoint x="714" y="410" as="targetPoint" />
          </mxGeometry>
        </mxCell>
        <mxCell id="m79Oxo2R7m8tHtwxaWUQ-46" value="Review Report" style="rhombus;whiteSpace=wrap;html=1;" parent="1" vertex="1">
          <mxGeometry x="700" y="280" width="125" height="80" as="geometry" />
        </mxCell>
        <mxCell id="m79Oxo2R7m8tHtwxaWUQ-47" value="" style="endArrow=none;html=1;rounded=0;entryX=0.5;entryY=1;entryDx=0;entryDy=0;exitX=0.5;exitY=0;exitDx=0;exitDy=0;" parent="1" source="m79Oxo2R7m8tHtwxaWUQ-46" target="m79Oxo2R7m8tHtwxaWUQ-34" edge="1">
          <mxGeometry width="50" height="50" relative="1" as="geometry">
            <mxPoint x="796" y="346" as="sourcePoint" />
            <mxPoint x="675" y="270" as="targetPoint" />
          </mxGeometry>
        </mxCell>
        <mxCell id="m79Oxo2R7m8tHtwxaWUQ-48" value="" style="endArrow=none;html=1;rounded=0;entryX=0.5;entryY=1;entryDx=0;entryDy=0;exitX=0.5;exitY=0;exitDx=0;exitDy=0;" parent="1" source="m79Oxo2R7m8tHtwxaWUQ-26" target="m79Oxo2R7m8tHtwxaWUQ-46" edge="1">
          <mxGeometry width="50" height="50" relative="1" as="geometry">
            <mxPoint x="876" y="476" as="sourcePoint" />
            <mxPoint x="755" y="400" as="targetPoint" />
          </mxGeometry>
        </mxCell>
        <mxCell id="m79Oxo2R7m8tHtwxaWUQ-49" value="Generate Report" style="rhombus;whiteSpace=wrap;html=1;" parent="1" vertex="1">
          <mxGeometry x="895" y="412" width="140" height="90" as="geometry" />
        </mxCell>
        <mxCell id="m79Oxo2R7m8tHtwxaWUQ-50" value="" style="endArrow=none;html=1;rounded=0;entryX=1;entryY=0.5;entryDx=0;entryDy=0;exitX=0;exitY=0.5;exitDx=0;exitDy=0;" parent="1" source="m79Oxo2R7m8tHtwxaWUQ-49" target="m79Oxo2R7m8tHtwxaWUQ-26" edge="1">
          <mxGeometry width="50" height="50" relative="1" as="geometry">
            <mxPoint x="815" y="575" as="sourcePoint" />
            <mxPoint x="820" y="460" as="targetPoint" />
          </mxGeometry>
        </mxCell>
        <mxCell id="RVCEijpu7AcNGRgRn6ni-1" value="1" style="text;html=1;align=center;verticalAlign=middle;resizable=0;points=[];autosize=1;strokeColor=none;fillColor=none;" vertex="1" parent="1">
          <mxGeometry x="818" y="430" width="30" height="30" as="geometry" />
        </mxCell>
        <mxCell id="RVCEijpu7AcNGRgRn6ni-2" value="1" style="text;html=1;align=center;verticalAlign=middle;resizable=0;points=[];autosize=1;strokeColor=none;fillColor=none;" vertex="1" parent="1">
          <mxGeometry x="760.5" y="230" width="30" height="30" as="geometry" />
        </mxCell>
        <mxCell id="RVCEijpu7AcNGRgRn6ni-3" value="M" style="text;html=1;align=center;verticalAlign=middle;resizable=0;points=[];autosize=1;strokeColor=none;fillColor=none;" vertex="1" parent="1">
          <mxGeometry x="758" y="397" width="30" height="30" as="geometry" />
        </mxCell>
      </root>
    </mxGraphModel>
  </diagram>
</mxfile>
